<svg width="16" height="16" viewBox="0 0 16 16" fill="none" xmlns="http://www.w3.org/2000/svg">
<path fill-rule="evenodd" clip-rule="evenodd" d="M11.3829 10.7924C11.6562 10.7873 11.8933 10.7788 12.1053 10.7643C12.6027 10.7304 12.8737 10.668 13.0705 10.5865C13.7567 10.3023 14.3019 9.75718 14.586 9.07102C14.6676 8.87409 14.73 8.60322 14.7639 8.10654C14.7985 7.59908 14.7991 6.94801 14.7991 5.99981C14.7991 5.0516 14.7985 4.40053 14.7639 3.89307C14.73 3.39639 14.6676 3.12552 14.586 2.92859C14.3019 2.24243 13.7567 1.69728 13.0705 1.4131C12.8737 1.33158 12.6027 1.26917 12.1053 1.23528C11.5973 1.20065 10.9454 1.2 9.99609 1.2C9.04682 1.2 8.3949 1.20065 7.88686 1.23528C7.3895 1.26917 7.11846 1.33158 6.92164 1.4131C6.23548 1.69728 5.69033 2.24243 5.40615 2.92859C5.32459 3.12552 5.26221 3.39639 5.22832 3.89307C5.21386 4.10502 5.20533 4.34201 5.2003 4.61524C4.74673 4.61533 4.35052 4.61603 4 4.62219C4.01754 3.62348 4.0794 2.99595 4.29748 2.46941C4.70346 1.48918 5.48224 0.710402 6.46246 0.304423C7.19748 0 8.13035 0 9.99609 0C11.8618 0 12.7947 0 13.5297 0.304423C14.51 0.710402 15.2887 1.48918 15.6947 2.46941C15.9991 3.20443 15.9991 4.13622 15.9991 5.99981C15.9991 7.86339 15.9991 8.79518 15.6947 9.5302C15.2887 10.5104 14.51 11.2892 13.5297 11.6952C13.0033 11.9132 12.3754 11.9751 11.3759 11.9927C11.3821 11.6422 11.3828 11.246 11.3829 10.7924Z" fill="black"/>
<path d="M0.6 10C0.6 9.05991 0.600325 8.38489 0.636669 7.85222C0.672644 7.32494 0.741899 6.98112 0.85881 6.69888C1.20389 5.86578 1.86578 5.20389 2.69888 4.85881C2.98112 4.7419 3.32494 4.67264 3.85222 4.63667C4.38489 4.60032 5.05991 4.6 6 4.6C6.94009 4.6 7.61511 4.60032 8.14778 4.63667C8.67506 4.67264 9.01888 4.7419 9.30112 4.85881C10.1342 5.20389 10.7961 5.86578 11.1412 6.69888C11.2581 6.98112 11.3274 7.32494 11.3633 7.85222C11.3997 8.38489 11.4 9.05991 11.4 10C11.4 10.9401 11.3997 11.6151 11.3633 12.1478C11.3274 12.6751 11.2581 13.0189 11.1412 13.3011C10.7961 14.1342 10.1342 14.7961 9.30112 15.1412C9.01888 15.2581 8.67506 15.3274 8.14778 15.3633C7.61511 15.3997 6.94009 15.4 6 15.4C5.05991 15.4 4.38489 15.3997 3.85222 15.3633C3.32494 15.3274 2.98112 15.2581 2.69888 15.1412C1.86578 14.7961 1.20389 14.1342 0.85881 13.3011C0.741899 13.0189 0.672644 12.6751 0.636669 12.1478C0.600325 11.6151 0.6 10.9401 0.6 10Z" stroke="black" stroke-width="1.2"/>
</svg>
