<svg width="40" height="40" viewBox="0 0 40 40" fill="none" xmlns="http://www.w3.org/2000/svg">
<path d="M1 20C1 24.0947 1.22071 27.3168 1.78509 29.8563C2.34695 32.3845 3.23603 34.1743 4.53086 35.4691C5.82569 36.764 7.61553 37.6531 10.1437 38.2149C12.6832 38.7793 15.9053 39 20 39C24.0947 39 27.3168 38.7793 29.8563 38.2149C32.3845 37.6531 34.1743 36.764 35.4691 35.4691C36.764 34.1743 37.6531 32.3845 38.2149 29.8563C38.7793 27.3168 39 24.0947 39 20C39 15.9053 38.7793 12.6832 38.2149 10.1437C37.6531 7.61553 36.764 5.82569 35.4691 4.53086C34.1743 3.23603 32.3845 2.34695 29.8563 1.78509C27.3168 1.22071 24.0947 1 20 1C15.9053 1 12.6832 1.22071 10.1437 1.78509C7.61553 2.34695 5.82569 3.23603 4.53086 4.53086C3.23603 5.82569 2.34695 7.61553 1.78509 10.1437C1.22071 12.6832 1 15.9053 1 20Z" stroke="white" stroke-width="2" stroke-linecap="round" stroke-linejoin="round"/>
<path d="M18.5962 13.6364L21.5326 10.5572C22.2073 9.84963 23.341 9.81076 24.0647 10.4703L29.4301 15.3599C30.1538 16.0194 30.1936 17.1277 29.5189 17.8352L26.3636 21.1439M18.5962 13.6364L10.4811 22.1461C10.1439 22.4998 9.97118 22.974 10.0039 23.4564L10.3372 28.3646C10.3999 29.2874 11.1857 30.0035 12.1317 30L17.1638 29.9813C17.6584 29.9795 18.1302 29.7778 18.4674 29.4242L26.3636 21.1439M18.5962 13.6364L26.3636 21.1439" stroke="white" stroke-width="2" stroke-linejoin="round"/>
</svg>
