<svg width="24" height="12" viewBox="0 0 24 12" fill="none" xmlns="http://www.w3.org/2000/svg">
<path fill-rule="evenodd" clip-rule="evenodd" d="M9 0.992227C9 0.428982 8.53256 -0.02457 7.9699 0.00106754C2.07952 0.269462 0 1.45174 0 6.00003C0 10.5483 2.07952 11.7306 7.9699 11.999C8.53256 12.0246 9 11.5711 9 11.0078C9 10.4663 8.56897 10.0246 8.02803 9.99958C7.48396 9.97441 6.97948 9.94124 6.51129 9.89818C5.04605 9.76343 4.08107 9.54256 3.43832 9.25646C2.85776 8.99803 2.57538 8.70503 2.39012 8.34268C2.17191 7.9159 2 7.21289 2 6.00003C2 4.78717 2.17191 4.08416 2.39012 3.65738C2.57538 3.29502 2.85776 3.00203 3.43832 2.7436C4.08107 2.45749 5.04605 2.23663 6.51129 2.10187C6.97948 2.05882 7.48396 2.02565 8.02803 2.00047C8.56897 1.97545 9 1.53374 9 0.992227ZM15 11.0078C15 10.4663 15.431 10.0246 15.972 9.99958C16.516 9.97441 17.0205 9.94124 17.4887 9.89818C18.954 9.76343 19.9189 9.54256 20.5617 9.25646C21.1422 8.99803 21.4246 8.70503 21.6099 8.34268C21.8281 7.9159 22 7.21289 22 6.00003C22 4.78717 21.8281 4.08416 21.6099 3.65738C21.4246 3.29502 21.1422 3.00203 20.5617 2.7436C19.9189 2.45749 18.954 2.23663 17.4887 2.10187C17.0205 2.05882 16.516 2.02565 15.972 2.00047C15.431 1.97545 15 1.53374 15 0.992227C15 0.428982 15.4674 -0.02457 16.0301 0.00106751C21.9205 0.269462 24 1.45174 24 6.00003C24 10.5483 21.9205 11.7306 16.0301 11.999C15.4674 12.0246 15 11.5711 15 11.0078Z" fill="#212135"/>
<path d="M7 6H17" stroke="#212135" stroke-width="2" stroke-linecap="round" stroke-linejoin="round"/>
</svg>
