<svg width="50" height="50" viewBox="0 0 50 50" fill="none" xmlns="http://www.w3.org/2000/svg">
<path fill-rule="evenodd" clip-rule="evenodd" d="M14.5957 12.9561C17.4922 12.6293 20.93 12.5 25 12.5C29.07 12.5 32.5078 12.6293 35.4043 12.9561C35.0665 10.1751 33.8637 8.1242 32.265 6.70313C30.3323 4.98519 27.6989 4.08331 25 4.08331C22.3011 4.08331 19.6677 4.98519 17.735 6.70313C16.1363 8.1242 14.9335 10.1751 14.5957 12.9561ZM39.4751 13.6308C39.2508 9.37589 37.523 6.02508 34.9225 3.71349C32.1677 1.26477 28.5511 0.083313 25 0.083313C21.4489 0.083313 17.8323 1.26477 15.0775 3.71349C12.477 6.02508 10.7492 9.37589 10.5249 13.6308C2.1628 15.5759 0 20.4398 0 31.25C0 46.6906 4.4125 50 25 50C45.5875 50 50 46.6906 50 31.25C50 20.4398 47.8372 15.5759 39.4751 13.6308ZM4 31.25C4 38.9361 5.1969 41.7281 7.17969 43.2152C8.30297 44.0577 10.0809 44.7985 13.0661 45.2961C16.0457 45.7927 19.9199 46 25 46C30.0801 46 33.9543 45.7927 36.9339 45.2961C39.9191 44.7985 41.697 44.0577 42.8203 43.2152C44.8031 41.7281 46 38.9361 46 31.25C46 23.5639 44.8031 20.7718 42.8203 19.2847C41.697 18.4423 39.9191 17.7015 36.9339 17.2039C33.9543 16.7072 30.0801 16.5 25 16.5C19.9199 16.5 16.0457 16.7072 13.0661 17.2039C10.0809 17.7015 8.30297 18.4423 7.17969 19.2847C5.1969 20.7718 4 23.5639 4 31.25Z" fill="white"/>
<circle r="4.25" transform="matrix(-1 0 0 1 25 31.25)" stroke="white" stroke-width="4"/>
</svg>
